<!-- icon666.com - MILLIONS OF FREE VECTOR ICONS --><svg id="Layer_1" enable-background="new 0 0 512 512" viewBox="0 0 512 512" xmlns="http://www.w3.org/2000/svg"><g clip-rule="evenodd" fill-rule="evenodd"><g><g><circle cx="406.191" cy="406.191" fill="#eb5463" r="89.775"></circle><path d="m451.191 391.191c8.284 0 15 6.716 15 15s-6.716 15-15 15c-53.006 0-36.995 0-90 0-8.284 0-15-6.716-15-15s6.716-15 15-15z" fill="#f4f6f8"></path></g><g><path d="m181.299 351.844c-5.857 5.857-15.354 5.857-21.211 0s-5.857-15.354 0-21.211l170.546-170.546c5.857-5.857 15.354-5.857 21.211 0s5.857 15.354 0 21.211z" fill="#66d4f1"></path><path d="m241.749 326.155 18.998-18.998c4.887 1.758 10.445 8.456 14.203 12.213 17.269 17.268 17.269 45.7 0 62.968l-100.61 100.609c-17.269 17.269-45.699 17.269-62.968 0l-82.386-82.387c-17.269-17.269-17.269-45.699 0-62.968l100.609-100.609c17.269-17.269 45.698-17.269 62.967-.001 3.758 3.758 10.455 9.316 12.213 14.203l-18.997 18.997c-4.887-1.758-10.445-8.455-14.203-12.212-5.736-5.736-15.255-5.737-20.991 0l-100.61 100.61c-5.737 5.737-5.737 15.255 0 20.992l82.387 82.387c5.736 5.737 15.255 5.737 20.992 0l100.609-100.609c5.737-5.736 5.736-15.256 0-20.992-3.757-3.757-10.455-9.317-12.213-14.203zm28.434-140.378c-1.758-4.886-8.455-10.446-12.212-14.203-5.803-5.803-5.8-15.192 0-20.992l100.609-100.609c5.736-5.736 15.255-5.736 20.992 0l82.387 82.387c5.736 5.736 5.736 15.256 0 20.992l-100.609 100.61c-5.737 5.736-15.254 5.736-20.991 0-3.757-3.757-9.317-10.455-14.204-12.212l-18.998 18.998c1.758 4.887 8.456 10.446 12.214 14.203 17.27 17.269 45.698 17.269 62.967 0l100.609-100.611c17.268-17.269 17.269-45.699 0-62.968l-82.387-82.387c-17.269-17.269-45.699-17.269-62.968 0l-100.61 100.609c-17.326 17.326-17.314 45.654.001 62.968 3.757 3.758 9.316 10.455 14.202 12.213z" fill="#4fc0e8"></path></g></g><path d="m327.166 250.677c1.995 1.719 4.16 4.009 5.694 5.63.908.959 1.769 1.858 2.55 2.64 8.517 8.52 22.37 8.51 30.887 0l100.613-100.61c8.517-8.519 8.517-22.38 0-30.891l-82.394-82.389c-8.517-8.511-22.37-8.511-30.887 0l-100.609 100.61c-8.521 8.52-8.521 22.379 0 30.889.776.781 1.68 1.639 2.64 2.551 1.619 1.538 3.906 3.698 5.628 5.689l-11.119 11.13c-1.99-1.73-4.16-4.02-5.694-5.64-.908-.96-1.769-1.86-2.546-2.639-14.629-14.631-14.629-38.44 0-53.071l100.609-100.61c14.63-14.628 38.439-14.628 53.069 0l82.389 82.391c14.63 14.629 14.63 38.44 0 53.069l-100.609 100.61c-14.629 14.631-38.439 14.631-53.069 0-.781-.779-1.68-1.64-2.64-2.549-1.618-1.529-3.91-3.7-5.628-5.691zm-12.747 29.259c10.051 10.04 23.24 15.061 36.43 15.061 13.199 0 26.389-5.022 36.44-15.061l100.609-100.61c20.092-20.09 20.092-52.779 0-72.869l-82.389-82.39c-20.088-20.088-52.782-20.078-72.87 0l-100.609 100.609c-20.092 20.09-20.092 52.781 0 72.871.701.7 1.468 1.509 2.287 2.369 4.014 4.241 9.011 9.51 14.503 11.481 2.541.919 5.397.279 7.312-1.642l18.996-18.989c1.92-1.921 2.56-4.77 1.642-7.319-1.972-5.49-7.242-10.49-11.472-14.501-.861-.82-1.68-1.581-2.376-2.29-3.063-3.061-3.063-8.029 0-11.089l100.608-100.61c3.007-3.011 8.079-3.011 11.086 0l82.394 82.389c3.007 3 3.007 8.08 0 11.091l-100.609 100.61c-3.002 3.009-8.094 3.009-11.091 0-.701-.7-1.473-1.511-2.292-2.371-4.009-4.238-9.011-9.508-14.498-11.479-2.555-.921-5.402-.279-7.313 1.639l-19.001 19.001c-1.92 1.91-2.56 4.758-1.638 7.319 1.967 5.481 7.237 10.481 11.477 14.49.864.821 1.673 1.59 2.374 2.29zm-44.42 97.491c7.03-7.031 10.898-16.461 10.898-26.54 0-10.08-3.868-19.5-10.898-26.529-.781-.781-1.642-1.68-2.541-2.641-1.539-1.619-3.708-3.91-5.698-5.639l-11.119 11.13c1.717 1.99 4.009 4.15 5.628 5.691.96.909 1.863 1.77 2.64 2.549 4.103 4.089 6.353 9.58 6.353 15.44 0 5.871-2.249 11.35-6.353 15.449l-100.61 100.61c-8.512 8.509-22.37 8.509-30.892 0l-82.389-82.391c-4.089-4.101-6.348-9.58-6.348-15.451 0-5.86 2.259-11.348 6.348-15.44l100.609-100.61c8.522-8.519 22.384-8.519 30.892 0 .791.781 1.642 1.68 2.55 2.641 1.539 1.619 3.699 3.91 5.699 5.63l11.119-11.12c-1.727-1.99-4.019-4.16-5.637-5.691-.96-.91-1.863-1.77-2.64-2.549-7.03-7.031-16.45-10.9-26.53-10.9-10.084 0-19.514 3.869-26.539 10.9l-100.604 100.61c-7.03 7.03-10.907 16.451-10.907 26.529 0 10.091 3.877 19.512 10.907 26.54l82.379 82.391c14.63 14.63 38.444 14.63 53.074 0zm7.609-65.341c-4.009-4.241-9.007-9.511-14.488-11.479-2.55-.921-5.411-.281-7.322 1.639l-19.001 18.99c-1.915 1.921-2.56 4.77-1.637 7.321 1.981 5.489 7.242 10.479 11.467 14.499.871.81 1.68 1.581 2.381 2.29 1.454 1.45 2.249 3.421 2.249 5.54 0 2.13-.795 4.101-2.249 5.549l-100.609 100.61c-2.997 3.002-8.079 3.002-11.091 0l-82.389-82.389c-1.449-1.45-2.249-3.421-2.249-5.551 0-2.119.8-4.09 2.249-5.54l100.609-100.61c3.012-3.009 8.089-3.009 11.091 0 .71.7 1.468 1.511 2.292 2.371 4.009 4.24 9.006 9.5 14.498 11.479 2.55.921 5.402.281 7.322-1.64l18.992-19c1.92-1.909 2.555-4.759 1.637-7.319-1.972-5.479-7.242-10.481-11.467-14.49-.875-.82-1.68-1.59-2.381-2.29-9.67-9.67-22.61-15.001-36.43-15.001s-26.76 5.331-36.444 15.001l-100.597 100.61c-9.679 9.67-15.011 22.611-15.011 36.429 0 13.821 5.331 26.761 15.011 36.44l82.38 82.391c10.051 10.04 23.24 15.06 36.439 15.06 13.19 0 26.389-5.02 36.43-15.06l100.609-100.61c9.67-9.679 15.001-22.62 15.001-36.44 0-13.821-5.331-26.761-15.001-36.429-.701-.7-1.468-1.511-2.291-2.371zm-112.57 23.529c-1.511 1.511-2.348 3.522-2.348 5.661 0 2.13.837 4.139 2.348 5.65 3.12 3.119 8.192 3.119 11.312 0l170.537-170.54c3.12-3.121 3.12-8.199 0-11.31-1.511-1.52-3.51-2.351-5.647-2.351-2.141 0-4.15.831-5.661 2.351zm-16.347 5.662c0 5.869 2.287 11.4 6.447 15.55 4.291 4.29 9.924 6.43 15.552 6.43 5.642 0 11.27-2.14 15.561-6.43l170.537-170.54c8.583-8.58 8.583-22.541 0-31.11-4.15-4.161-9.67-6.45-15.547-6.45-5.882 0-11.402 2.288-15.561 6.45l-170.542 170.54c-4.161 4.16-6.447 9.68-6.447 15.56zm302.499 72.95h-89.998c-4.414 0-8.004-3.59-8.004-8.001 0-4.41 3.59-7.999 8.004-7.999h89.998c4.409 0 7.999 3.59 7.999 7.999 0 4.411-3.59 8.001-7.999 8.001zm0-30.001h-89.998c-12.136 0-22.003 9.87-22.003 22 0 12.131 9.867 22 22.003 22h89.998c12.126 0 21.998-9.869 21.998-22 0-12.13-9.872-22-21.998-22zm-45.004 104.771c-45.639 0-82.765-37.131-82.765-82.771s37.127-82.779 82.765-82.779c45.644 0 82.784 37.139 82.784 82.779s-37.14 82.771-82.784 82.771zm0-179.55c53.365 0 96.783 43.419 96.783 96.779s-43.418 96.77-96.783 96.77c-53.356 0-96.764-43.41-96.764-96.77s43.408-96.779 96.764-96.779z"></path></g></svg>