<!-- icon666.com - MILLIONS OF FREE VECTOR ICONS --><svg version="1.1" id="Capa_1" xmlns="http://www.w3.org/2000/svg" xmlns:xlink="http://www.w3.org/1999/xlink" x="0px" y="0px" viewBox="0 0 512 512" style="enable-background:new 0 0 512 512;" xml:space="preserve"><path d="M0,355.2v-324c0-5.6,4.8-10.4,10.4-10.4h491.2c5.6,0,10.4,4.8,10.4,10.4v324H0z"></path><g><path style="fill:#C1C1C1;" d="M512,355.2v41.6c0,5.6-4.8,10.4-10.4,10.4H10.4c-5.6,0-10.4-4.8-10.4-10.4v-41.6H512z"></path><rect x="146.4" y="480.8" style="fill:#C1C1C1;" width="219.2" height="10.4"></rect></g><polygon style="fill:#9E9E9E;" points="328.8,480.8 183.2,480.8 193.6,407.2 318.4,407.2 "></polygon><rect x="20.8" y="41.6" style="fill:#FFFFFF;" width="470.4" height="292.8"></rect><polygon style="fill:#666666;" points="318.4,407.2 193.6,407.2 187.792,448.28 320.272,420.424 "></polygon><g><rect x="65" y="75.248" style="fill:#C1C1C1;" width="382" height="53.408"></rect><rect x="65" y="141.072" style="fill:#C1C1C1;" width="382" height="8"></rect></g><g><rect x="333.512" y="182.712" style="fill:#F91E1E;" width="113.488" height="151.688"></rect><rect x="199.256" y="182.712" style="fill:#F91E1E;" width="113.488" height="151.688"></rect><rect x="65" y="182.712" style="fill:#F91E1E;" width="113.488" height="151.688"></rect></g><g><rect x="82.08" y="206.712" style="fill:#FFFFFF;" width="32.664" height="4"></rect><rect x="82.08" y="224.08" style="fill:#FFFFFF;" width="79.328" height="4"></rect><rect x="216.32" y="206.712" style="fill:#FFFFFF;" width="32.672" height="4"></rect><rect x="216.32" y="224.08" style="fill:#FFFFFF;" width="79.336" height="4"></rect><rect x="350.592" y="206.736" style="fill:#FFFFFF;" width="32.672" height="4"></rect><rect x="350.592" y="224.08" style="fill:#FFFFFF;" width="79.336" height="4"></rect></g></svg>